<?xml version="1.0" standalone="no"?>
<!DOCTYPE svg PUBLIC "-//W3C//DTD SVG 20010904//EN"
 "http://www.w3.org/TR/2001/REC-SVG-20010904/DTD/svg10.dtd">
<svg version="1.0" xmlns="http://www.w3.org/2000/svg"
 width="225.000000pt" height="225.000000pt" viewBox="0 0 225.000000 225.000000"
 preserveAspectRatio="xMidYMid meet">
<metadata>
Created by potrace 1.11, written by Peter Selinger 2001-2013
</metadata>
<g transform="translate(0.000000,225.000000) scale(0.100000,-0.100000)"
fill="#000000" stroke="none">
<path d="M775 2059 c-193 -105 -426 -231 -520 -281 -213 -113 -220 -119 -240
-173 -20 -52 -15 -100 16 -139 46 -59 -13 -56 1096 -56 991 0 1019 1 1050 20
69 42 89 117 51 189 -22 43 -34 51 -243 164 -121 65 -272 147 -335 182 -63 34
-151 82 -195 105 -44 24 -118 64 -165 90 -47 26 -103 56 -125 68 l-41 20 -349
-189z m383 -151 c7 -7 12 -27 12 -45 0 -31 2 -33 34 -33 36 0 66 -21 66 -46 0
-24 -38 -54 -70 -54 -27 0 -30 -3 -30 -33 0 -38 -15 -57 -45 -57 -30 0 -45 19
-45 57 0 30 -3 33 -30 33 -27 0 -70 29 -70 48 0 25 34 52 66 52 32 0 34 2 34
33 0 38 15 57 45 57 12 0 26 -5 33 -12z"/>
<path d="M280 1145 c0 -68 3 -78 25 -99 l25 -23 0 -231 c0 -222 -1 -231 -20
-237 -25 -8 -32 -34 -28 -115 l3 -65 138 -3 138 -3 -3 88 c-3 80 -5 89 -25 98
-23 10 -23 11 -23 241 l0 231 25 11 c24 11 25 16 25 97 l0 85 -140 0 -140 0 0
-75z"/>
<path d="M750 1140 c0 -74 2 -81 25 -96 l25 -16 0 -234 c0 -137 -4 -234 -9
-234 -29 0 -41 -34 -41 -112 l0 -80 128 3 c70 2 133 5 140 7 8 3 12 27 12 74
0 73 -11 108 -35 108 -13 0 -15 35 -15 235 0 215 2 236 18 242 28 10 32 24 32
106 l0 77 -140 0 -140 0 0 -80z"/>
<path d="M1220 1141 c0 -73 2 -81 25 -99 l25 -20 0 -229 0 -230 -25 -11 c-24
-11 -25 -16 -25 -95 l0 -83 113 -3 c62 -1 125 1 140 4 26 7 27 9 27 80 0 71
-13 105 -41 105 -5 0 -9 96 -9 231 l0 231 25 20 c23 18 25 26 25 99 l0 79
-140 0 -140 0 0 -79z"/>
<path d="M1690 1143 c0 -82 4 -96 33 -106 15 -6 17 -27 17 -239 0 -232 0 -233
-22 -243 -21 -9 -23 -18 -26 -95 l-3 -85 141 -3 140 -2 0 79 c0 77 -12 111
-41 111 -5 0 -9 96 -9 231 l0 232 25 23 c22 21 25 31 25 99 l0 75 -140 0 -140
0 0 -77z"/>
<path d="M55 176 c-29 -13 -55 -51 -55 -82 0 -28 28 -70 55 -82 20 -9 282 -12
1071 -12 885 0 1049 2 1073 14 27 14 51 53 51 82 0 31 -30 72 -61 83 -50 17
-2094 15 -2134 -3z"/>
</g>
</svg>
